
<svg xmlns="http://www.w3.org/2000/svg" width="30" height="31" fill="none"><path fill="#9E77ED" d="M30 14.717v1.76l-.072.632c-.359 3.23-1.592 6.078-3.769 8.494-2.31 2.564-5.173 4.165-8.58 4.768-.564.1-1.137.157-1.705.234h-1.759c-.502-.063-1.007-.109-1.505-.192-3.134-.524-5.865-1.873-8.113-4.119C1.125 22.925-.358 18.83.073 14.088.363 10.904 1.607 8.09 3.736 5.7 6.563 2.526 10.12.816 14.364.609c2.97-.145 5.762.55 8.302 2.106 3.88 2.376 6.263 5.813 7.1 10.299.105.563.157 1.135.234 1.704Zm-2.33.88C27.67 8.603 22 2.93 15.001 2.92 8.017 2.91 2.339 8.58 2.32 15.582 2.3 22.572 8.006 28.283 15 28.274c7-.01 12.67-5.684 12.67-12.677Z"/><path fill="#9E77ED" d="M14.987 16.653c-1.915 0-3.829.004-5.743-.002-.846-.002-1.406-.726-1.165-1.496a1.1 1.1 0 0 1 .919-.8c.115-.02.232-.03.35-.03h11.309c.622.001 1.053.273 1.234.76a1.154 1.154 0 0 1-1.073 1.564c-.791.015-1.583.004-2.374.004h-3.457Z"/></svg>