
<svg xmlns="http://www.w3.org/2000/svg" width="30" height="31" fill="none"><path fill="#9E77ED" d="M14.063.605h1.874c.193.024.384.05.576.071 2.968.319 5.627 1.397 7.932 3.287 2.876 2.356 4.665 5.37 5.325 9.033.098.544.154 1.096.23 1.644v1.871c-.064.491-.11.985-.195 1.473-.68 3.903-2.58 7.092-5.734 9.492-3.282 2.498-7.01 3.46-11.099 2.928-2.98-.388-5.607-1.602-7.86-3.591C2.494 24.5.86 21.622.234 18.184.133 17.631.077 17.07 0 16.511v-1.87c.045-.367.083-.733.136-1.098.472-3.263 1.85-6.086 4.165-8.44C6.547 2.822 9.255 1.39 12.416.836c.546-.096 1.098-.154 1.646-.23Zm.942 28.07c7.228-.005 13.111-5.876 13.12-13.09.008-7.22-5.895-13.113-13.13-13.108-7.228.005-13.112 5.875-13.12 13.09-.007 7.218 5.897 13.113 13.13 13.108Z"/><path fill="#9E77ED" d="M14.063 14.64V8.395a1.898 1.898 0 0 1 .021-.378.936.936 0 0 1 1.852.221c.004 1.637.002 3.274.002 4.911v1.491h.332c2.02 0 4.042-.003 6.062.002.723.001 1.192.676.908 1.303-.18.396-.506.569-.94.568a1983.37 1983.37 0 0 0-5.975-.002h-.387v6.376c0 .422-.181.736-.565.91-.365.165-.708.093-1.005-.17-.236-.208-.308-.48-.308-.789.005-1.988.005-3.975.002-5.963v-.364h-.348L7.68 16.51c-.73-.002-1.202-.66-.927-1.293.18-.412.516-.58.961-.579 2.002.005 4.003.005 6.004.002h.344Z"/></svg>